<mxfile host="app.diagrams.net" agent="Mozilla/5.0 (Windows NT 10.0; Win64; x64) AppleWebKit/537.36 (KHTML, like Gecko) Chrome/138.0.0.0 Safari/537.36" version="28.0.6">
  <diagram name="PÃ¡gina-1" id="JWMgUscZQH8DccA3_s1I">
    <mxGraphModel dx="1426" dy="751" grid="1" gridSize="10" guides="1" tooltips="1" connect="1" arrows="1" fold="1" page="1" pageScale="1" pageWidth="827" pageHeight="1169" math="0" shadow="0">
      <root>
        <mxCell id="0" />
        <mxCell id="1" parent="0" />
        <object label="" id="QUADRO BRANCO">
          <mxCell style="whiteSpace=wrap;html=1;aspect=fixed;labelBackgroundColor=default;fontFamily=Garamond;" parent="1" vertex="1">
            <mxGeometry x="210" y="150" width="980" height="980" as="geometry" />
          </mxCell>
        </object>
        <mxCell id="DaHYpQaYHMRuyCqvNLu--5" style="edgeStyle=orthogonalEdgeStyle;rounded=0;orthogonalLoop=1;jettySize=auto;html=1;" parent="1" source="VIVO" target="FirewallWatchguard" edge="1">
          <mxGeometry relative="1" as="geometry" />
        </mxCell>
        <mxCell id="DaHYpQaYHMRuyCqvNLu--24" value="" style="edgeStyle=orthogonalEdgeStyle;rounded=0;orthogonalLoop=1;jettySize=auto;html=1;" parent="1" source="VIVO" target="FirewallWatchguard" edge="1">
          <mxGeometry relative="1" as="geometry" />
        </mxCell>
        <mxCell id="DaHYpQaYHMRuyCqvNLu--25" value="" style="edgeStyle=orthogonalEdgeStyle;rounded=0;orthogonalLoop=1;jettySize=auto;html=1;" parent="1" source="VIVO" target="FirewallWatchguard" edge="1">
          <mxGeometry relative="1" as="geometry" />
        </mxCell>
        <object label="&lt;font style=&quot;color: rgb(0, 0, 0);&quot;&gt;VIVO&lt;/font&gt;&lt;div&gt;&lt;br&gt;&lt;/div&gt;" id="VIVO">
          <mxCell style="fontColor=#0066CC;verticalAlign=top;verticalLabelPosition=bottom;labelPosition=center;align=center;html=1;outlineConnect=0;fillColor=#CCCCCC;strokeColor=#6881B3;gradientColor=none;gradientDirection=north;strokeWidth=2;shape=mxgraph.networks.router;fontSize=14;" parent="1" vertex="1">
            <mxGeometry x="695" y="585" width="100" height="30" as="geometry" />
          </mxCell>
        </object>
        <object label="&lt;font style=&quot;color: rgb(0, 0, 0); font-size: 14px;&quot;&gt;Embratel&lt;/font&gt;&lt;div&gt;&lt;font style=&quot;color: rgb(0, 0, 0);&quot;&gt;&lt;br&gt;&lt;/font&gt;&lt;/div&gt;" id="EMBRATEL">
          <mxCell style="fontColor=#0066CC;verticalAlign=top;verticalLabelPosition=bottom;labelPosition=center;align=center;html=1;outlineConnect=0;fillColor=#CCCCCC;strokeColor=#6881B3;gradientColor=none;gradientDirection=north;strokeWidth=2;shape=mxgraph.networks.router;" parent="1" vertex="1">
            <mxGeometry x="795" y="585" width="100" height="30" as="geometry" />
          </mxCell>
        </object>
        <mxCell id="DaHYpQaYHMRuyCqvNLu--10" style="edgeStyle=orthogonalEdgeStyle;rounded=0;orthogonalLoop=1;jettySize=auto;html=1;" parent="1" source="FirewallWatchguard" target="SWITCHDMZ" edge="1">
          <mxGeometry relative="1" as="geometry" />
        </mxCell>
        <object label="&lt;div&gt;&lt;font style=&quot;font-size: 14px; color: rgb(0, 0, 0);&quot;&gt;Firewall Watchguard M290&lt;/font&gt;&lt;/div&gt;" id="FirewallWatchguard">
          <mxCell style="fontColor=#0066CC;verticalAlign=top;verticalLabelPosition=bottom;labelPosition=center;align=center;html=1;outlineConnect=0;fillColor=#CCCCCC;strokeColor=#6881B3;gradientColor=none;gradientDirection=north;strokeWidth=2;shape=mxgraph.networks.firewall;" parent="1" vertex="1">
            <mxGeometry x="750" y="680" width="100" height="100" as="geometry" />
          </mxCell>
        </object>
        <mxCell id="DaHYpQaYHMRuyCqvNLu--8" style="edgeStyle=orthogonalEdgeStyle;rounded=0;orthogonalLoop=1;jettySize=auto;html=1;" parent="1" source="SWCORE" target="TermometroIP" edge="1">
          <mxGeometry relative="1" as="geometry" />
        </mxCell>
        <mxCell id="DaHYpQaYHMRuyCqvNLu--9" style="edgeStyle=orthogonalEdgeStyle;rounded=0;orthogonalLoop=1;jettySize=auto;html=1;" parent="1" source="SWCORE" target="SW2960" edge="1">
          <mxGeometry relative="1" as="geometry" />
        </mxCell>
        <object label="&lt;font style=&quot;color: rgb(0, 0, 0); font-size: 14px;&quot;&gt;SWCORE&lt;/font&gt;" id="SWCORE">
          <mxCell style="fontColor=#0066CC;verticalAlign=top;verticalLabelPosition=bottom;labelPosition=center;align=center;html=1;outlineConnect=0;fillColor=#CCCCCC;strokeColor=#6881B3;gradientColor=none;gradientDirection=north;strokeWidth=2;shape=mxgraph.networks.switch;" parent="1" vertex="1">
            <mxGeometry x="750" y="850" width="100" height="30" as="geometry" />
          </mxCell>
        </object>
        <object label="&lt;font style=&quot;font-size: 14px; color: rgb(0, 0, 0);&quot;&gt;Termometro IP&lt;/font&gt;" id="TermometroIP">
          <mxCell style="sketch=0;pointerEvents=1;shadow=0;dashed=0;html=1;strokeColor=none;labelPosition=center;verticalLabelPosition=bottom;verticalAlign=top;outlineConnect=0;align=center;shape=mxgraph.office.servers.physical_host;fillColor=#2072B8;" parent="1" vertex="1">
            <mxGeometry x="1060" y="839" width="27" height="52" as="geometry" />
          </mxCell>
        </object>
        <mxCell id="DaHYpQaYHMRuyCqvNLu--29" style="edgeStyle=orthogonalEdgeStyle;rounded=0;orthogonalLoop=1;jettySize=auto;html=1;" parent="1" source="SW2960" target="BackendPostgreSQL2" edge="1">
          <mxGeometry relative="1" as="geometry" />
        </mxCell>
        <mxCell id="8DC4rLCr69_rcTSR9GRJ-1" style="edgeStyle=orthogonalEdgeStyle;rounded=0;orthogonalLoop=1;jettySize=auto;html=1;" parent="1" source="SW2960" target="CFS02" edge="1">
          <mxGeometry relative="1" as="geometry" />
        </mxCell>
        <object label="&lt;font style=&quot;font-size: 14px; color: rgb(0, 0, 0);&quot;&gt;SW 2960&lt;/font&gt;&lt;div&gt;&lt;br&gt;&lt;/div&gt;" id="SW2960">
          <mxCell style="fontColor=#0066CC;verticalAlign=top;verticalLabelPosition=bottom;labelPosition=center;align=center;html=1;outlineConnect=0;fillColor=#CCCCCC;strokeColor=#6881B3;gradientColor=none;gradientDirection=north;strokeWidth=2;shape=mxgraph.networks.switch;" parent="1" vertex="1">
            <mxGeometry x="470" y="850" width="100" height="30" as="geometry" />
          </mxCell>
        </object>
        <mxCell id="DaHYpQaYHMRuyCqvNLu--1" style="edgeStyle=orthogonalEdgeStyle;rounded=0;orthogonalLoop=1;jettySize=auto;html=1;entryX=1;entryY=0.5;entryDx=0;entryDy=0;" parent="1" source="SWITCHDMZ" target="BackendPostgre" edge="1">
          <mxGeometry relative="1" as="geometry" />
        </mxCell>
        <mxCell id="DaHYpQaYHMRuyCqvNLu--2" style="edgeStyle=orthogonalEdgeStyle;rounded=0;orthogonalLoop=1;jettySize=auto;html=1;" parent="1" source="SWITCHDMZ" target="dimension" edge="1">
          <mxGeometry relative="1" as="geometry" />
        </mxCell>
        <object label="&lt;font style=&quot;font-size: 14px; color: rgb(0, 0, 0);&quot;&gt;SWITCH DMZ&lt;/font&gt;" id="SWITCHDMZ">
          <mxCell style="fontColor=#0066CC;verticalAlign=top;verticalLabelPosition=bottom;labelPosition=center;align=center;html=1;outlineConnect=0;fillColor=#CCCCCC;strokeColor=#6881B3;gradientColor=none;gradientDirection=north;strokeWidth=2;shape=mxgraph.networks.switch;" parent="1" vertex="1">
            <mxGeometry x="475" y="715" width="100" height="30" as="geometry" />
          </mxCell>
        </object>
        <object label="&lt;font style=&quot;font-size: 14px;&quot;&gt;CFS01 - AD&lt;/font&gt;&lt;div&gt;&lt;font style=&quot;font-size: 14px;&quot;&gt;IP: 10.1.15.61&lt;/font&gt;&lt;/div&gt;" id="CFS01">
          <mxCell style="image;html=1;image=img/lib/clip_art/computers/Server_128x128.png" parent="1" vertex="1">
            <mxGeometry x="470" y="990" width="80" height="80" as="geometry" />
          </mxCell>
        </object>
        <object label="&lt;font style=&quot;font-size: 14px;&quot;&gt;Dimension&amp;nbsp;&lt;/font&gt;&lt;div&gt;&lt;font style=&quot;font-size: 14px;&quot;&gt;IP: 10.1.40.76&lt;/font&gt;&lt;/div&gt;" id="dimension">
          <mxCell style="image;html=1;image=img/lib/clip_art/computers/Server_128x128.png" parent="1" vertex="1">
            <mxGeometry x="250" y="690" width="80" height="80" as="geometry" />
          </mxCell>
        </object>
        <object label="&lt;font style=&quot;font-size: 14px;&quot;&gt;Backend PostgreSQL&lt;/font&gt;&lt;div&gt;&lt;/div&gt;&lt;div&gt;&lt;font style=&quot;font-size: 14px;&quot;&gt;IP: 10.1.15.&lt;/font&gt;&lt;span style=&quot;font-size: 14px; background-color: light-dark(#ffffff, var(--ge-dark-color, #121212)); color: light-dark(rgb(0, 0, 0), rgb(255, 255, 255));&quot;&gt;76&lt;/span&gt;&lt;/div&gt;" id="BackendPostgre">
          <mxCell style="image;html=1;image=img/lib/clip_art/computers/Server_128x128.png" parent="1" vertex="1">
            <mxGeometry x="310" y="550" width="80" height="80" as="geometry" />
          </mxCell>
        </object>
        <mxCell id="DaHYpQaYHMRuyCqvNLu--6" style="edgeStyle=orthogonalEdgeStyle;rounded=0;orthogonalLoop=1;jettySize=auto;html=1;entryX=0.5;entryY=0;entryDx=0;entryDy=0;entryPerimeter=0;" parent="1" source="EMBRATEL" target="FirewallWatchguard" edge="1">
          <mxGeometry relative="1" as="geometry" />
        </mxCell>
        <mxCell id="DaHYpQaYHMRuyCqvNLu--7" style="edgeStyle=orthogonalEdgeStyle;rounded=0;orthogonalLoop=1;jettySize=auto;html=1;entryX=0.5;entryY=0;entryDx=0;entryDy=0;entryPerimeter=0;" parent="1" source="FirewallWatchguard" target="SWCORE" edge="1">
          <mxGeometry relative="1" as="geometry" />
        </mxCell>
        <mxCell id="DaHYpQaYHMRuyCqvNLu--12" style="edgeStyle=orthogonalEdgeStyle;rounded=0;orthogonalLoop=1;jettySize=auto;html=1;entryX=0.625;entryY=0.25;entryDx=0;entryDy=0;entryPerimeter=0;" parent="1" source="SW2960" target="CFS01" edge="1">
          <mxGeometry relative="1" as="geometry" />
        </mxCell>
        <object label="AZURE CLOUD&lt;div&gt;&lt;br&gt;&lt;/div&gt;" id="AZURECLOUD">
          <mxCell style="html=1;outlineConnect=0;fillColor=#CCCCCC;strokeColor=#6881B3;gradientColor=none;gradientDirection=north;strokeWidth=2;shape=mxgraph.networks.cloud;fontColor=#000000;fontStyle=0;fontSize=14;direction=east;labelBackgroundColor=none;noLabel=0;portConstraintRotation=0;snapToPoint=0;shadow=0;labelPosition=center;verticalLabelPosition=bottom;align=center;verticalAlign=top;" parent="1" vertex="1">
            <mxGeometry x="350" y="240" width="90" height="50" as="geometry" />
          </mxCell>
        </object>
        <object label="AWS CLOUD&lt;div&gt;&lt;br&gt;&lt;/div&gt;" id="AWSCLOUD">
          <mxCell style="html=1;outlineConnect=0;fillColor=#CCCCCC;strokeColor=#6881B3;gradientColor=none;gradientDirection=north;strokeWidth=2;shape=mxgraph.networks.cloud;fontColor=#000000;fontStyle=0;fontSize=14;direction=east;labelBackgroundColor=none;noLabel=0;portConstraintRotation=0;snapToPoint=0;shadow=0;labelPosition=center;verticalLabelPosition=bottom;align=center;verticalAlign=top;" parent="1" vertex="1">
            <mxGeometry x="465" y="240" width="90" height="50" as="geometry" />
          </mxCell>
        </object>
        <object label="ZADARA CLOUD&lt;div&gt;&lt;/div&gt;&lt;div&gt;&lt;/div&gt;&lt;div&gt;&lt;br&gt;&lt;/div&gt;" id="ZADARACLOUD">
          <mxCell style="html=1;outlineConnect=0;fillColor=#CCCCCC;strokeColor=#6881B3;gradientColor=none;gradientDirection=north;strokeWidth=2;shape=mxgraph.networks.cloud;fontColor=#000000;fontStyle=0;fontSize=14;direction=east;labelBackgroundColor=none;noLabel=0;portConstraintRotation=0;snapToPoint=0;shadow=0;labelPosition=center;verticalLabelPosition=bottom;align=center;verticalAlign=top;" parent="1" vertex="1">
            <mxGeometry x="580" y="240" width="90" height="50" as="geometry" />
          </mxCell>
        </object>
        <object label="GOOGLE CLOUD&lt;div&gt;&lt;br&gt;&lt;/div&gt;" id="GOOGLECLOUD">
          <mxCell style="html=1;outlineConnect=0;fillColor=#CCCCCC;strokeColor=#6881B3;gradientColor=none;gradientDirection=north;strokeWidth=2;shape=mxgraph.networks.cloud;fontColor=#000000;fontStyle=0;fontSize=14;direction=east;labelBackgroundColor=none;noLabel=0;portConstraintRotation=0;snapToPoint=0;shadow=0;labelPosition=center;verticalLabelPosition=bottom;align=center;verticalAlign=top;" parent="1" vertex="1">
            <mxGeometry x="705" y="240" width="90" height="50" as="geometry" />
          </mxCell>
        </object>
        <object label="&lt;div&gt;ZOHO CLOUD&lt;/div&gt;&lt;div&gt;&lt;br&gt;&lt;/div&gt;" id="ZOHOCLOUD">
          <mxCell style="html=1;outlineConnect=0;fillColor=#CCCCCC;strokeColor=#6881B3;gradientColor=none;gradientDirection=north;strokeWidth=2;shape=mxgraph.networks.cloud;fontColor=#000000;fontStyle=0;fontSize=14;direction=east;labelBackgroundColor=none;noLabel=0;portConstraintRotation=0;snapToPoint=0;shadow=0;labelPosition=center;verticalLabelPosition=bottom;align=center;verticalAlign=top;" parent="1" vertex="1">
            <mxGeometry x="827" y="240" width="90" height="50" as="geometry" />
          </mxCell>
        </object>
        <object label="WATCHGUARD CLOUD&lt;div&gt;&lt;br&gt;&lt;/div&gt;" id="WATCHGUARDCLOUD">
          <mxCell style="html=1;outlineConnect=0;fillColor=#CCCCCC;strokeColor=#6881B3;gradientColor=none;gradientDirection=north;strokeWidth=2;shape=mxgraph.networks.cloud;fontColor=#000000;fontStyle=0;fontSize=14;direction=east;labelBackgroundColor=none;noLabel=0;portConstraintRotation=0;snapToPoint=0;shadow=0;labelPosition=center;verticalLabelPosition=bottom;align=center;verticalAlign=top;" parent="1" vertex="1">
            <mxGeometry x="960" y="240" width="90" height="50" as="geometry" />
          </mxCell>
        </object>
        <mxCell id="DaHYpQaYHMRuyCqvNLu--21" style="edgeStyle=orthogonalEdgeStyle;rounded=0;orthogonalLoop=1;jettySize=auto;html=1;" parent="1" source="ISP01VIVO" target="VIVO" edge="1">
          <mxGeometry relative="1" as="geometry" />
        </mxCell>
        <object label="&lt;div&gt;ISP01 VIVO&lt;/div&gt;&lt;div&gt;&lt;br&gt;&lt;/div&gt;" id="ISP01VIVO">
          <mxCell style="html=1;outlineConnect=0;fillColor=#CCCCCC;strokeColor=#6881B3;gradientColor=none;gradientDirection=north;strokeWidth=2;shape=mxgraph.networks.cloud;fontColor=#000000;fontStyle=0;fontSize=14;direction=east;labelBackgroundColor=none;noLabel=0;portConstraintRotation=0;snapToPoint=0;shadow=0;labelPosition=center;verticalLabelPosition=bottom;align=center;verticalAlign=top;" parent="1" vertex="1">
            <mxGeometry x="700" y="410" width="90" height="50" as="geometry" />
          </mxCell>
        </object>
        <mxCell id="DaHYpQaYHMRuyCqvNLu--23" style="edgeStyle=orthogonalEdgeStyle;rounded=0;orthogonalLoop=1;jettySize=auto;html=1;" parent="1" source="ISP02EMBRATEL" target="EMBRATEL" edge="1">
          <mxGeometry relative="1" as="geometry" />
        </mxCell>
        <object label="&lt;div&gt;ISP02&amp;nbsp;&lt;/div&gt;&lt;div&gt;EMBRATEL&lt;/div&gt;&lt;div&gt;&lt;br&gt;&lt;/div&gt;" id="ISP02EMBRATEL">
          <mxCell style="html=1;outlineConnect=0;fillColor=#CCCCCC;strokeColor=#6881B3;gradientColor=none;gradientDirection=north;strokeWidth=2;shape=mxgraph.networks.cloud;fontColor=#000000;fontStyle=0;fontSize=14;direction=east;labelBackgroundColor=none;noLabel=0;portConstraintRotation=0;snapToPoint=0;shadow=0;labelPosition=center;verticalLabelPosition=bottom;align=center;verticalAlign=top;" parent="1" vertex="1">
            <mxGeometry x="800" y="410" width="90" height="50" as="geometry" />
          </mxCell>
        </object>
        <object label="&lt;font style=&quot;font-size: 14px;&quot;&gt;Backend PostgreSQL&lt;/font&gt;&lt;div&gt;&lt;/div&gt;&lt;div&gt;&lt;font style=&quot;font-size: 14px;&quot;&gt;IP: 10.1.15.&lt;/font&gt;&lt;span style=&quot;font-size: 14px; background-color: light-dark(#ffffff, var(--ge-dark-color, #121212)); color: light-dark(rgb(0, 0, 0), rgb(255, 255, 255));&quot;&gt;76&lt;/span&gt;&lt;/div&gt;" id="BackendPostgreSQL2">
          <mxCell style="image;html=1;image=img/lib/clip_art/computers/Server_128x128.png" parent="1" vertex="1">
            <mxGeometry x="334" y="990" width="80" height="80" as="geometry" />
          </mxCell>
        </object>
        <object label="&lt;font style=&quot;font-size: 14px;&quot;&gt;CFS02&lt;/font&gt;&lt;span style=&quot;font-size: 14px; background-color: light-dark(#ffffff, var(--ge-dark-color, #121212)); color: light-dark(rgb(0, 0, 0), rgb(255, 255, 255));&quot;&gt;&amp;nbsp;- AD&lt;/span&gt;&lt;div&gt;&lt;div&gt;&lt;font style=&quot;font-size: 14px;&quot;&gt;IP: 10.1.15.62&lt;/font&gt;&lt;/div&gt;&lt;/div&gt;" id="CFS02">
          <mxCell style="image;html=1;image=img/lib/clip_art/computers/Server_128x128.png" parent="1" vertex="1">
            <mxGeometry x="610" y="980" width="80" height="80" as="geometry" />
          </mxCell>
        </object>
        <mxCell id="AEEsqr247Nyjk2ECT8nw-1" value="" style="shape=image;verticalLabelPosition=bottom;labelBackgroundColor=default;verticalAlign=top;aspect=fixed;imageAspect=0;image=data:image/png,iVBORw0KGgoAAAANSUhEUgAAADwAAAA5CAYAAABqMUjBAAAACXBIWXMAAC4jAAAuIwF4pT92AAALi0lEQVRogcWae3xUxRXHf2fm7ibZkJCAQqAgxnwAecrDApZa9COggPgoIv0UP7w+yENFaIRWtGgVqVoVRNBCUcC2WlBQUAFRsQHloYLIQ/ygKIKAQqFAErKbvXfm9I/du3vvZhP2FXruZ3Lnc3czM9855545c2YJGZCi3mPGaKZLAAEmCZB9d9eZRPhZtB7/mQSIQKwB1gArECuAdS13Ff6uAqH273sMsdpIF7b9gElFJ89UvggiYiKAABCFC8COevgPGNF6+B9intnCANjxKbueR4vjGdsFrrsQ9I9lc0q/EOkCV5zzj4kS1V4Y5JiIBIpr0OHimoB493iTwSDCy6/PnTqid/d2nDawpfSIUC0GLoES73v2sCnOwF3w8Ur8iShb+dx9o3p3vxwAkBZw674TeyvNbUGEmuZMbnOmMJBTizXM2S6IGTxiIRzfiX431pylEO8AuNGGBYC03uHKqsD4pDRJMc/qNOektBhnQnjpsU1/HR075pQ13LrvhLZK87BEzDTRUqc529pMYDIAXnri45qwaQFXnAuMBZHXbbpOc8Z5ntloThO3JWEtugszsjzGmhMfPR8XNtRjCrJ5xz4aMumpo5qp2fnWWWkY6068P2tgKv3Uh6Sk4WGTnx6imZtFzDHGCTkLES3O3HDTl5SANfMYG5SdoDHemYT4ccWTo1dmdsjpSdLAXW+a0txSekDdzgr2/Z9Xdy3h+C39fyRp4JOny0e4HE+cdTVcgs0uyn8yw+NNW5IGNi01odYlyGHOQohle5bffyrTA05XkgK+7No7B2imVomsvQ18WQszPtoMSFLAgaA50jbjmmsvImuqEGL/wbcf3lJPY05LEgbuMOCeNsy4pc5oKRw8GIZ8uR7GmhFJGPj02cp7lEZWAuas83Ozl9TLaDMgCQHfOnFWltI8vOYuqObaaxhyxf43/vhTfQ88VUlot7Tti6+HMdAokQ2A1zBckdWbL3zoeWvBxh5ej9FNMDUxSHSC4oYCAhoaFmsoaJBH7A8EzaPeXOPTNt1bfTRt/siqzKKGJKFYuvkvRq2xNAbClXNyxs7RXJaQxqY8lpvaV8vcxgFuThpXk8XNJQlIECQEDBIgAAoMxRoWNFQYXEFDER8/4xVfH2/sO/e9MlsTWwWS0O/E+zN31jvwJVePaVVtWt/XlZwTQh73kvGvNhU4e7GSfdjU10iEAUmEIUOwEgKSQvudCKwD2A3PYIP2nPWKJ/79yROvpgsLJGDSmnl87akY+q5QeJZ0rJTNdbUaSxoNFABJFF69QncBgOwrPMUaDA12XRqOhEWobyhTdco29SsDu5T2ubxLq8mzl04OpANcp4afWrRSzF781lEFKgJJ2GlYEvJQHntmtwt4i3W1uos0vEZYk06tSoqasPMzAC4tWk5zDtdNaGjHc4sZkNjVuKhh/+XvzTyRKnCdXnrO4tU3auaiiFZDQcXy7lbuI5edxeNBf3AKa/aKiP5srZK9OXTUEalHdYoYHYcuBYT283BmWxmWUlcc/+n0qpfmvy3rBZiEuMM2ZyJxpNDImtDujFEQOOtfzIp9TjN1AhEAEWPO0mvsJ0IZgDIGyoRHfqKIgy5UBjRQYxqcpm9Z6qrFC9Y+kipwrSbd+rpxXcvPBXYwCfJ4vOtbVnjXGQF+WBIVhsw17IzimLCE0IbHWCNJlB0uyDq9L88j/UFumevLaVbhty5mMry+bHnM768+WsKqouvZqix/RdVYxbpY13Bc9tLFTsempCFKtuxecChZ4Fo1XHHOfzcAMqSc1+q056AI6GcJKLS1KkBuZwRAEB3O9nmn+Irym2661Ddi9UXi5A5DtaoKWC2YwRVVwWMg2gXCZ/6AeRRgfAfOe7Nh1uke0we1FoKGa/B/maMmryOm7dK2tLSeliwsUIeGi68ZW2xppuYnvQ8RY6TLGYGijiik1dO+nKw/TX9+1PyOPUp0KgOxZfhVM9pVVvi3KOgC5QhMQg6NI9pnwYe2f/nipRkDBoDul48r8GVn3a4tfY1kupYYRTW8rhCvFBTmTX5500MZ2/ve3mN6r8qqwNa4Zu0w9/xGDUo2bn7uu2TaTiprObjXH4qh+HqrWg0XGp0NKSev3vWXpUnRJCiDrihdYlpqlBs4unRZ0GDCtbv3LSlLpt1aA49Lbnx0UJUlB8Ob2yXX52tSWX7m2Fbz3Lu92zeds27uXQvSJjqP5BX4Fp46WT7K7a/dgUnzn13UdPe+5NqtAVxyw33tK6rxUqU/2EsbPrAinCmvgrDMYqGt3tt2HegDoF8moOqSZRsf29av071VrNmnmeM5LkTPlhIXl5du0Wdct/JK/xbFoheTAZARiqzYChVtgVWw7xU3TW2dIa66hbAzeq4QczHjyNGTSUdcEeBbJ87Ksiy9jkk2hDAAYYCFAYAjsAiD5+Z4PBnEqlWU1ioW0nm40rSo8EiybUaAt+/99hHF1AQipFVbw6QVoMM/K9AKAvqHLcsfT/LNSU2EFO10DKRtziSoYsOHc75Juk27Um3pniHYsGaFASYRNedwMQxxbwaZapUbuv+uhWmpi+O9u8wMENam0m70HSbPKbbNmELgBA3SIXOWUMH83OyJP5QtWJUpqLpEKT04GnExtCP6YgAk6I1U2o0A5+c3mCGk90eENcxChk3ZgiF4c7bX0/PAu0/X+3Jki2lak9yajTovCPw4btzglM6sXIFHixseLDaRVVpNvo5aZiNbWN96OfDespnDVvyyS3FaIWMyMvDK0v7n/IH1ihk1Ag/WIEPM3LN3yUOptG38Zuij+V/uPtRGEjWQ3/8HksTKbK9nVdMmhY3LT1UWmgHryIWELR01N2fnZ9/Ms/fA2mXODAZOCqJnUm3f2LP74GQB8aitbAJgBRV+OnIKkgQE6BEAF+wU4csvDj7L4Dax+2D7/c3J8U7dvnPR2VTbFzk5WZcSOfNO9qFgNGtxoWTwlVMnm6Y1zvXesr0cAdKQr23fuSitUw1R7Q+2iO5xnfvb0OX1GCWZgDmfXN9h8ii/P/isO16OXkQ4qJUen24/gkBKxM1HheBZc99dn35Tr2q+ufu0aQwsiZffYjBAKGfmW3bvW3Im3b6M3Nzsr6qrggNizdmeBGgumnHn30YCWJpuZ7EyuON9DYVHLKquNofGzWExQIKq8/N9N2/cOm93JvoUytIHQom4WGO2E3EEbelnxlz3WMtMdGjLbV3vHysEfWWa1lBngOHc/oHgLyjMG7Jx67yyTPUrtKU2udKoDmflSL02On2ifM1vfz6jON0OJ/T9c7vbu96/wTKtRVrrZrG/top6ZpxtkJfT74OP56xJt0+nEAD0bD9xLzE62HkrAzFZyOi50Jksr+f3DywY/WKHHpclvBl944UN3pULPhwCScODljnIzk/VPFoJBRhk0IGgZf36032L9mQSNgL8y873DFWmei2ar3In7OxJEBRKyxpCHpZMr3g9no1NWzbaNnPV3a51cWHp67k7NuzrJryiW3XQ6q0FDzKV5astcnKCM2GVYj16676FaTuoWoEB4FedJq1nxf0NxGi1bo3bn7MkKhcg0uB8y3GMEu90MG5+SuC49MjSDz6fm5FDs9oksnno3LXkFkOIPbGuy31cElOPvO8gAjUEkO/OP9W20Lh3PobHWE5EbesbFojZPAzp82Dz8lPn1hOjo/No04ijVddhWcJHoOzSMBn0CRMeXLtz9ob6Bo0LDAD92k9paEixUGgaJmzYGuZc84hFgKARexLItTmlFUHLembt3jnbLhRorcC23HblA/3MgDlVQvSXMYfZ8TQO1H0EqgV/DknLTNN69c09Tx29YIQxct6Q8Y6eD7c1/cERBsm7SKMg4sRcwCHtxnhhU2aJd4JKrSeBdX/fPvPwhQA6nyQVI4/vPastm7qdCqjOBgkRNefQD1QUayWy5S4Y9MP8zdPT/j1Gfcj/ABfB1euhE0s+AAAAAElFTkSuQmCC;" vertex="1" parent="1">
          <mxGeometry x="220" y="160" width="60" height="57" as="geometry" />
        </mxCell>
      </root>
    </mxGraphModel>
  </diagram>
</mxfile>
